HIERARCHY
ROOT Hips
{
  OFFSET -102.467 93.6631 130.069
  CHANNELS 6 Xposition Yposition Zposition Zrotation Xrotation Yrotation
  JOINT LeftUpLeg
  {
    OFFSET 8.64259 1.95398 -2.38835
    CHANNELS 3 Zrotation Xrotation Yrotation
    JOINT LeftLeg
    {
      OFFSET 43.7702 0 0
      CHANNELS 3 Zrotation Xrotation Yrotation
      JOINT LeftFoot
      {
        OFFSET 40.6238 0 0
        CHANNELS 3 Zrotation Xrotation Yrotation
        JOINT LeftToeBase
        {
          OFFSET 12.7242 0 0
          CHANNELS 3 Zrotation Xrotation Yrotation
          End Site
          {
            OFFSET 0 0 0
          }
        }
      }
    }
  }
  JOINT RightUpLeg
  {
    OFFSET -8.2249 1.95398 -2.59336
    CHANNELS 3 Zrotation Xrotation Yrotation
    JOINT RightLeg
    {
      OFFSET 43.5653 0 0
      CHANNELS 3 Zrotation Xrotation Yrotation
      JOINT RightFoot
      {
        OFFSET 40.6238 0 0
        CHANNELS 3 Zrotation Xrotation Yrotation
        JOINT RightToeBase
        {
          OFFSET 12.7242 0 0
          CHANNELS 3 Zrotation Xrotation Yrotation
          End Site
          {
            OFFSET 0 0 0
          }
        }
      }
    }
  }
  JOINT Spine
  {
    OFFSET 0.165834 0.87714 6.61349
    CHANNELS 3 Zrotation Xrotation Yrotation
    JOINT Spine1
    {
      OFFSET 7.38963 1.71661e-005 0
      CHANNELS 3 Zrotation Xrotation Yrotation
      JOINT Spine2
      {
        OFFSET 11.9445 1.14441e-005 0
        CHANNELS 3 Zrotation Xrotation Yrotation
        JOINT Spine3
        {
          OFFSET 14.7254 4.19617e-005 0
          CHANNELS 3 Zrotation Xrotation Yrotation
          JOINT Spine4
          {
            OFFSET 10.9679 0 0
            CHANNELS 3 Zrotation Xrotation Yrotation
            JOINT RightShoulder
            {
              OFFSET 2.46616 -1.6653 3.69651
              CHANNELS 3 Zrotation Xrotation Yrotation
              JOINT RightArm
              {
                OFFSET 13.0012 0 0
                CHANNELS 3 Zrotation Xrotation Yrotation
                JOINT RightForeArm
                {
                  OFFSET 28.7848 1.52588e-005 0
                  CHANNELS 3 Zrotation Xrotation Yrotation
                  JOINT RightHand
                  {
                    OFFSET 26.5688 1.52588e-005 0
                    CHANNELS 3 Zrotation Xrotation Yrotation
                    End Site
                    {
                      OFFSET 0 0 0
                    }
                  }
                }
              }
            }
            JOINT LeftShoulder
            {
              OFFSET 2.38034 -1.29275 -3.7523
              CHANNELS 3 Zrotation Xrotation Yrotation
              JOINT LeftArm
              {
                OFFSET 16.3182 6.10351e-005 0
                CHANNELS 3 Zrotation Xrotation Yrotation
                JOINT LeftForeArm
                {
                  OFFSET 27.0901 0 0
                  CHANNELS 3 Zrotation Xrotation Yrotation
                  JOINT LeftHand
                  {
                    OFFSET 24.5451 1.52588e-005 0
                    CHANNELS 3 Zrotation Xrotation Yrotation
                    End Site
                    {
                      OFFSET 0 0 0
                    }
                  }
                }
              }
            }
            JOINT Neck
            {
              OFFSET 5.0226 -0.0266342 0
              CHANNELS 3 Zrotation Xrotation Yrotation
              JOINT Head
              {
                OFFSET 6.69363 2.86102e-005 0
                CHANNELS 3 Zrotation Xrotation Yrotation
                End Site
                {
                  OFFSET 0 0 0
                }
              }
            }
          }
        }
      }
    }
  }
}
MOTION
Frames:	15
Frame Time:	0.0416667
-268.086 95.0666 255.837 94.3484 25.5049 90.9906 -170.004 -5.59645 91.8637 -5.2255 8.66439 -1.89045 61.0667 4.43977 14.1409 34.7709 -0.712697 -0.143655 -179.713 4.74899 93.2017 -21.3127 -8.18169 -3.50716 64.9436 5.77244 15.8573 27.6255 0.664336 2.58878 1.63807 7.12982 -90.4762 12.6348 3.02658 -1.30616 0.966619 2.96614 -1.43819 -21.5962 3.27907 -0.335289 -1.58353 3.27907 -0.335298 99.4763 -60.9588 -85.8564 21.1883 -9.8457 -7.65669 -2.63676 -8.06086 -15.1968 -5.97632 -0.319231 1.1394 -83.4821 -59.2723 89.1659 -22.4736 8.36532 -17.5157 1.34182 35.102 -7.31867 -0.470342 -0.0495723 -1.90331 -1.85778 1.67944 -2.36033 -13.3457 1.44371 6.36543 
-267.925 95.0549 255.839 94.1082 25.7683 91.0846 -170.214 -5.03786 91.8515 -6.1179 7.57847 -1.59133 61.7512 4.10654 12.6575 34.0767 -0.719929 -0.933039 -179.658 4.95395 93.233 -21.4021 -6.25374 -3.57764 65.1039 6.09776 17.1866 26.5753 1.11535 4.21598 1.66848 7.10876 -90.4494 12.6777 3.09952 -1.26314 1.00965 3.04092 -1.39843 -21.5547 3.33571 -0.272269 -1.54207 3.33568 -0.272274 100.384 -61.1302 -84.6105 21.4124 -9.78699 -7.69374 -2.55628 -7.89097 -14.9917 -6.31635 -0.336271 1.11062 -83.801 -58.3042 88.6426 -23.5848 8.28043 -17.5544 1.46363 35.9935 -6.87744 2.30336 0.0254941 -1.8346 -0.453787 0.0599002 -4.07034 -17.0227 -0.179706 7.00713 
-267.718 95.0261 256.052 93.4798 26.1627 91.6461 -169.751 -3.83868 92.4297 -7.14774 8.2977 -1.80328 62.1496 4.27668 12.6211 34.1919 -0.759961 -1.1633 -179.494 5.35586 93.7371 -21.1811 -5.75626 -3.44244 65.036 5.84049 16.7965 26.6558 1.11372 4.31956 1.66537 7.0639 -90.3819 12.7658 3.12491 -1.13455 1.098 3.07192 -1.27108 -21.4671 3.32125 -0.141958 -1.45448 3.32125 -0.141963 101.601 -62.094 -82.9373 20.8781 -10.2361 -8.17779 -2.50676 -8.17585 -15.0349 -6.4789 -0.364614 1.48919 -83.599 -56.1662 88.7279 -25.1883 8.5909 -17.8934 0.447978 40.3886 -5.45521 -13.9541 0.0152795 -5.31982 1.44732 -0.713375 -6.74497 -18.771 -0.783499 8.50877 
-267.625 95.0228 256.423 92.6983 26.3345 92.91 -168.959 -2.07369 93.6489 -8.64617 9.44473 -1.97252 62.5843 4.60327 12.808 34.6731 -0.809089 -1.05686 -178.848 5.789 95.0074 -20.3091 -4.9765 -3.42418 64.4211 5.65921 16.228 26.7993 1.15582 4.8202 1.63975 6.99834 -90.4896 12.8984 3.02122 -1.3435 1.23012 2.95915 -1.47525 -21.3325 3.28516 -0.372526 -1.31981 3.28517 -0.372525 101.016 -61.7419 -83.7346 21.1471 -9.98666 -7.9377 -2.68351 -7.94568 -15.4366 -6.17283 -0.320616 0.935476 -83.7792 -56.6811 88.5217 -24.517 9.08597 -17.8769 0.765591 38.3873 -6.11367 -6.14596 -0.0423549 -3.76334 0.86671 0.287086 -5.9686 -18.2712 0.15217 8.09863 
-267.627 95.0107 256.876 91.5404 26.4883 94.2205 -168.438 0.432365 94.6441 -10.8749 9.48387 -2.04238 63.4933 4.79883 11.9436 34.874 -0.885084 -1.4786 -178.151 6.89082 96.1923 -19.8904 -3.66008 -3.48815 64.1035 5.88558 16.7736 26.261 1.12369 3.8336 1.58861 6.89973 -90.5879 13.0963 2.87062 -1.52999 1.4275 2.80052 -1.6549 -21.1315 3.19762 -0.595803 -1.11884 3.19762 -0.595806 100.341 -61.3818 -84.6609 21.1623 -10.0021 -7.85133 -2.75099 -8.16944 -15.6362 -6.24223 -0.360667 1.68613 -83.8252 -57.4701 88.5313 -23.9492 7.83878 -18.144 1.57328 39.199 -6.47014 -13.4482 -0.151918 -3.73673 0.476677 0.422489 -4.88915 -17.55 0.24595 7.39711 
-267.4 94.8286 257.215 90.4953 27.227 95.9843 -167.86 3.23095 96.0733 -13.8209 11.0569 -1.99725 65.0176 5.50761 11.7363 34.7655 -0.73097 -0.307594 -177.318 8.15802 98.0181 -20.2896 -3.00233 -3.4066 63.5978 4.95268 14.6627 31.6113 -0.0678301 3.20328 1.45701 6.83823 -90.785 13.2184 2.51317 -1.88495 1.54831 2.42776 -1.99375 -21.0021 2.96339 -1.04214 -0.989465 2.96337 -1.04215 99.664 -60.7651 -85.6069 21.4532 -9.88573 -7.79966 -2.79491 -7.97302 -15.7747 -5.95161 -0.358228 2.01196 -83.8596 -58.4457 88.5741 -22.8571 9.09919 -18.2503 1.23744 37.8956 -5.40685 13.3268 0.201309 -2.58117 1.17872 0.854145 -3.17876 -17.3172 0.535495 6.7801 
-266.863 94.7803 257.419 89.0779 28.477 97.3857 -167.833 5.12766 96.792 -14.9046 12.9334 -1.75182 64.861 6.21267 12.6415 37.1473 -0.952241 0.185023 -177.235 9.20548 99.05 -20.2562 -2.98609 -2.86066 63.2872 3.82542 12.3032 37.2166 -1.48305 2.25413 1.27564 6.75159 -90.8809 13.3887 2.10502 -2.03133 1.71775 2.01358 -2.12199 -20.8249 2.6181 -1.30468 -0.812274 2.61812 -1.30468 100.003 -60.9099 -85.1375 21.3665 -10.0762 -7.66309 -2.84654 -8.40612 -16.0324 -6.73207 -0.45757 2.87958 -84.2964 -58.6078 87.9882 -22.259 9.35594 -17.7204 2.33781 38.4668 -7.07071 19.6264 0.488588 -1.29977 1.41336 0.70362 -3.34784 -16.397 0.392067 7.50375 
-265.93 94.6461 257.371 87.5998 30.075 98.1395 -168.704 6.54833 96.2793 -16.0753 13.8758 -0.896593 64.1854 7.60214 14.1607 41.7264 -1.25538 1.50618 -177.53 9.85066 99.1879 -20.3205 -2.14202 -2.5375 63.4299 3.69582 11.9477 37.7506 -1.70301 1.81604 1.01579 6.65884 -90.9119 13.5678 1.57254 -2.03006 1.89607 1.4817 -2.09729 -20.6392 2.10989 -1.46367 -0.626549 2.1099 -1.46367 98.2288 -61.3241 -87.5412 21.4851 -9.49085 -6.11933 -3.26692 -8.94029 -16.3177 -6.25868 -0.444983 3.37354 -83.8841 -58.539 88.5492 -22.3176 8.25187 -16.9942 2.88725 34.1343 -8.24505 14.5216 0.240317 -1.95829 -0.128899 1.09724 -2.90324 -14.969 0.760459 7.64457 
-265.023 93.7134 256.897 87.5931 32.5342 97.6879 -172.312 10.7541 94.481 -26.0157 12.8912 1.45241 62.1956 9.15078 15.9099 49.8761 -0.85455 6.42039 -179.45 11.3073 98.2892 -25.7241 -0.786992 -1.60636 66.6054 4.1962 12.797 36.0828 -1.0795 2.89165 0.873305 6.7846 -90.9868 13.313 1.25642 -2.13378 1.64085 1.16131 -2.18698 -20.8899 1.83952 -1.65768 -0.877213 1.83953 -1.65768 99.5688 -60.5217 -85.7476 21.8398 -9.74405 -6.1241 -2.98165 -8.98872 -15.8508 -6.84613 -0.50575 3.68543 -84.1492 -58.6824 88.1977 -22.2451 9.71345 -16.4657 3.65996 34.4579 -10.8703 9.05906 0.0520614 -2.94539 0.180089 0.719699 -1.70154 -15.3996 0.251315 7.05653 
-263.679 92.3742 256.203 89.4594 35.8598 96.144 -175.87 21.4137 94.0796 -48.1851 10.6941 2.81649 57.9971 4.81116 9.71642 55.0011 -0.554582 8.50594 178.944 10.8608 97.7395 -31.6814 0.0864983 -0.857744 71.6771 3.62217 12.2592 33.1398 -0.634114 2.00591 0.824586 7.18744 -91.0685 12.5054 1.12968 -2.26437 0.832889 1.02896 -2.31186 -21.695 1.75787 -1.82036 -1.68241 1.75787 -1.82037 99.2494 -60.5146 -86.1873 20.9784 -10.0544 -6.23702 -2.28788 -8.59679 -14.6738 -8.37459 -0.588579 3.17382 -83.6659 -58.4787 88.8438 -22.7671 10.2045 -17.5048 5.48456 33.0316 -14.5355 -1.5571 -0.0684991 -2.19391 0.963044 0.325699 -0.809706 -14.5366 -0.085967 5.68307 
-261.364 92.0213 254.44 90.4606 38.7063 92.5984 -176.861 28.2279 90.4569 -54.2554 8.46706 2.01565 55.524 3.94521 10.9569 54.4776 -1.53483 5.11723 177.138 8.2287 94.6805 -33.1146 0.878179 -0.461886 74.7463 3.13521 11.6459 33.6042 -0.34807 3.80853 0.739442 7.3652 -90.798 12.1522 1.09215 -1.71345 0.48056 1.01572 -1.75984 -22.0527 1.5566 -1.30606 -2.04005 1.55661 -1.30606 98.5942 -60.9971 -87.0627 20.586 -10.0384 -5.46406 -1.72377 -7.56686 -14.3065 -8.88949 -0.718562 4.31696 -83.4209 -58.6286 89.1948 -22.5119 11.3475 -15.5358 7.16944 33.0036 -18.0526 -1.96305 -0.0749536 -2.09028 0.0493898 0.15001 -0.87899 -14.2952 -0.0385388 3.64589 
-258.725 92.3582 251.9 93.0674 41.2967 87.1033 -178.84 26.2519 85.7693 -37.8298 6.74369 1.12434 56.3574 3.83839 9.23786 50.0899 -0.541416 7.72955 174.887 3.52495 90.0641 -32.2429 0.515073 -0.188652 74.6477 2.33743 10.5186 38.1464 -0.798594 5.81082 0.602745 7.67661 -90.3792 11.5247 1.02188 -0.858262 -0.146106 0.983118 -0.902409 -22.6836 1.23257 -0.511443 -2.67091 1.23256 -0.511454 99.7754 -61.6703 -85.4205 20.4355 -10.987 -6.30594 -2.06362 -7.97047 -15.3894 -7.85928 -0.670873 4.99917 -83.9547 -57.9768 88.3992 -23.6364 10.811 -14.0807 5.27602 37.1946 -13.5919 3.8349 -0.0157586 -2.91592 3.12412 -1.56665 -3.3758 -17.0549 -1.56577 5.11077 
-255.57 92.4957 249.143 93.1393 41.7176 85.5686 179.331 20.6097 85.3847 -9.2886 6.14602 0.658694 49.969 -1.15029 4.17044 37.2475 0.0343794 7.26905 174.438 -0.129125 88.1461 -30.3009 5.22569 -1.32832 74.7355 6.69678 19.757 34.8203 -0.201753 5.69142 0.493847 7.81979 -90.263 11.2366 0.860521 -0.608586 -0.434268 0.832909 -0.645879 -22.9713 1.00363 -0.321817 -2.95865 1.00363 -0.321817 98.4147 -60.8202 -87.3172 20.0869 -12.3185 -7.74474 -2.4214 -7.62704 -17.8322 -9.0614 -0.765018 4.87775 -83.9902 -59.148 88.4598 -24.0395 8.28081 -13.3811 1.00806 34.6737 -6.71873 -3.12049 -0.116141 -0.448772 7.08675 -1.16654 -0.694298 -18.3584 -1.42408 3.29743 
-251.411 92.1642 245.427 91.8309 40.2676 87.3838 179.501 23.5416 86.4134 -7.41067 9.90191 1.46249 54.4524 -1.88227 4.23484 36.9019 0.182607 8.18695 173.973 -3.47923 88.056 -27.7635 3.48479 -1.16479 71.4299 7.3089 21.5151 36.1482 -0.0622674 7.45758 0.618961 7.78614 -90.2585 11.305 1.11134 -0.625601 -0.365634 1.08273 -0.673916 -22.9043 1.24797 -0.262633 -2.89166 1.24797 -0.26264 98.7428 -61.7021 -86.821 18.1478 -13.5583 -10.069 -2.81362 -7.08739 -20.2187 -8.72963 -0.732964 4.83984 -84.119 -58.466 88.2186 -25.3067 6.97425 -10.4108 0.179344 35.3115 -4.41273 -5.75556 -0.212929 -0.242828 10.7953 -1.35419 -2.65451 -20.5039 -1.3707 4.56925 
-246.215 91.5777 240.401 92.2241 38.2892 86.5551 179.814 22.0649 85.8323 -10.8571 11.7399 1.12791 50.4588 -3.35055 5.71495 38.3684 0.0396563 7.67958 172.955 -6.39645 85.188 -28.5809 -2.13047 -1.76014 65.0322 8.26771 21.9496 46.5251 -0.528489 11.0956 0.719072 7.8224 -90.0112 11.2321 1.42594 -0.161424 -0.438056 1.41746 -0.224045 -22.9795 1.40854 0.274687 -2.96685 1.40851 0.274675 98.5319 -61.8079 -87.1014 18.6151 -12.9321 -10.3941 -3.32736 -6.46415 -21.8459 -8.64266 -0.643602 3.66667 -84.025 -58.6282 88.3636 -24.9741 5.04671 -9.19078 -1.33236 35.6432 -1.03867 -5.91207 -0.130843 -3.17434 11.9863 -1.54236 -3.03849 -21.7132 -1.44147 4.32874 
